<?xml version="1.0" encoding="utf-8"?>
<svg xmlns="http://www.w3.org/2000/svg" xml:space="preserve" viewBox="0 -1 600 8">
    <defs>  
        <linearGradient id="logo-gradient" x1="50%" y1="0%" x2="50%" y2="100%" > 
            
            <stop offset="0%" stop-color="#7A5FFF">
                <animate attributeName="stop-color" values="#7A5FFF; #01FF89; #7A5FFF" dur="4s" repeatCount="indefinite"></animate>
            </stop>

            <stop offset="100%" stop-color="#01FF89">
                <animate attributeName="stop-color" values="#01FF89; #7A5FFF; #01FF89" dur="4s" repeatCount="indefinite"></animate>
            </stop>

        </linearGradient> 

    </defs>
  
    <g>
      <path fill="url('#logo-gradient')" d="M576,5c0,0.8-0.7,1.5-1.5,1.5c-44.4,0-63.2-0.7-79.7-2.2C481.3,3.1,468.5,2,443.9,2C414,2,400.2,3.6,388,5.1
		c-10.3,1.2-20.1,2.4-37.7,2.4c-18.7,0-27-1.3-35.8-2.6C305.3,3.5,295.9,2,273.2,2c-21.3,0-33.4,1.3-46.2,2.6
		c-13.4,1.4-27.3,2.9-52.9,2.9c-29.8,0-47.7-2-62-3.6C102.8,2.9,94.8,2,86.1,2C66.8,2,34.5,5.3,27.2,6.3c-0.8,0.1-1.6-0.5-1.7-1.3
		l0,0c-0.1-0.8,0.5-1.6,1.3-1.7C34.1,2.3,66.6-1,86.1-1c8.9,0,17,0.9,26.4,1.9c14.3,1.6,32,3.6,61.7,3.6c25.4,0,39.2-1.5,52.6-2.9
		c12.9-1.4,25-2.6,46.5-2.6c22.9,0,32.5,1.5,41.7,2.9c8.7,1.3,16.8,2.6,35.3,2.6c17.5,0,27.1-1.2,37.3-2.4
		C399.9,0.7,413.8-1,443.9-1c24.8,0,37.6,1.1,51.2,2.3c16.5,1.5,35.1,2.1,79.4,2.2C575.3,3.5,576,4.2,576,5L576,5z"/>
    </g>
</svg>